<svg width="21" height="21" viewBox="0 0 21 21" fill="none" xmlns="http://www.w3.org/2000/svg">
<path d="M10.4669 0.572449C9.15369 0.572449 7.85333 0.831106 6.64007 1.33365C5.42682 1.8362 4.32442 2.5728 3.39584 3.50138C1.52047 5.37674 0.466906 7.92028 0.466906 10.5724C0.466906 13.2246 1.52047 15.7682 3.39584 17.6435C4.32442 18.5721 5.42682 19.3087 6.64007 19.8112C7.85333 20.3138 9.15369 20.5724 10.4669 20.5724C13.1191 20.5724 15.6626 19.5189 17.538 17.6435C19.4133 15.7682 20.4669 13.2246 20.4669 10.5724C20.4669 9.25923 20.2082 7.95887 19.7057 6.74561C19.2032 5.53236 18.4666 4.42997 17.538 3.50138C16.6094 2.5728 15.507 1.8362 14.2937 1.33365C13.0805 0.831106 11.7801 0.572449 10.4669 0.572449M10.4669 2.57245C12.5886 2.57245 14.6235 3.4153 16.1238 4.91559C17.6241 6.41589 18.4669 8.45072 18.4669 10.5724C18.4669 12.6942 17.6241 14.729 16.1238 16.2293C14.6235 17.7296 12.5886 18.5724 10.4669 18.5724C8.34517 18.5724 6.31034 17.7296 4.81005 16.2293C3.30976 14.729 2.46691 12.6942 2.46691 10.5724C2.46691 8.45072 3.30976 6.41589 4.81005 4.91559C6.31034 3.4153 8.34517 2.57245 10.4669 2.57245M10.4669 4.57245C8.87561 4.57245 7.34948 5.20459 6.22427 6.32981C5.09905 7.45503 4.46691 8.98115 4.46691 10.5724C4.46691 12.1637 5.09905 13.6899 6.22427 14.8151C7.34948 15.9403 8.87561 16.5724 10.4669 16.5724C12.0582 16.5724 13.5843 15.9403 14.7095 14.8151C15.8348 13.6899 16.4669 12.1637 16.4669 10.5724C16.4669 8.98115 15.8348 7.45503 14.7095 6.32981C13.5843 5.20459 12.0582 4.57245 10.4669 4.57245ZM10.4669 6.57245C11.5278 6.57245 12.5452 6.99388 13.2953 7.74402C14.0455 8.49417 14.4669 9.51158 14.4669 10.5724C14.4669 11.6333 14.0455 12.6507 13.2953 13.4009C12.5452 14.151 11.5278 14.5724 10.4669 14.5724C9.40604 14.5724 8.38862 14.151 7.63848 13.4009C6.88833 12.6507 6.46691 11.6333 6.46691 10.5724C6.46691 9.51158 6.88833 8.49417 7.63848 7.74402C8.38862 6.99388 9.40604 6.57245 10.4669 6.57245V6.57245Z" fill="#E94730"/>
</svg>
