<svg width="30" height="30" viewBox="0 0 30 30" fill="none" xmlns="http://www.w3.org/2000/svg">
<path d="M7.5 23.75H13.75V28.75L10.625 26.875L7.5 28.75V23.75ZM25 1.25H15V28.75L18.125 26.875L21.25 28.75V26.25H25C25.663 26.25 26.2989 25.9866 26.7678 25.5178C27.2366 25.0489 27.5 24.413 27.5 23.75V3.75C27.5 3.08696 27.2366 2.45107 26.7678 1.98223C26.2989 1.51339 25.663 1.25 25 1.25ZM17.5 6.25H20V8.75H17.5V6.25ZM17.5 12.5H20V15H17.5V12.5ZM17.5 18.75H20V21.25H17.5V18.75ZM5 1.25C4.33757 1.25198 3.70283 1.51601 3.23442 1.98442C2.76601 2.45283 2.50198 3.08757 2.5 3.75V23.75C2.50198 24.4124 2.76601 25.0472 3.23442 25.5156C3.70283 25.984 4.33757 26.248 5 26.25V3.75H13.75V1.25H5Z" fill="#E94730"/>
<path d="M7.5 6.25H10V8.75H7.5V6.25ZM7.5 12.5H10V15H7.5V12.5ZM7.5 18.75H10V21.25H7.5V18.75Z" fill="#E94730"/>
</svg>
