<svg width="23" height="25" viewBox="0 0 23 25" fill="none" xmlns="http://www.w3.org/2000/svg">
<path d="M21.25 25H1.25C0.918479 25 0.600537 24.8683 0.366116 24.6339C0.131696 24.3995 0 24.0815 0 23.75V1.25C0 0.918479 0.131696 0.600537 0.366116 0.366116C0.600537 0.131696 0.918479 0 1.25 0H21.25C21.5815 0 21.8995 0.131696 22.1339 0.366116C22.3683 0.600537 22.5 0.918479 22.5 1.25V23.75C22.5 24.0815 22.3683 24.3995 22.1339 24.6339C21.8995 24.8683 21.5815 25 21.25 25ZM20 22.5V2.5H2.5V22.5H20ZM6.25 8.75H16.25V11.25H6.25V8.75ZM6.25 13.75H16.25V16.25H6.25V13.75Z" fill="#E94730"/>
</svg>
